<svg width="25" height="24" viewBox="0 0 25 24" fill="none" xmlns="http://www.w3.org/2000/svg">
<path d="M23.2812 1.49998C23.2812 0.895297 22.9156 0.34686 22.3531 0.112485C21.7906 -0.12189 21.1484 0.00936 20.7172 0.435923L18.6734 2.48436C16.4234 4.73436 13.3719 5.99998 10.1891 5.99998H9.78125H8.28125H3.78125C2.12656 5.99998 0.78125 7.3453 0.78125 8.99998V13.5C0.78125 15.1547 2.12656 16.5 3.78125 16.5V22.5C3.78125 23.3297 4.45156 24 5.28125 24H8.28125C9.11094 24 9.78125 23.3297 9.78125 22.5V16.5H10.1891C13.3719 16.5 16.4234 17.7656 18.6734 20.0156L20.7172 22.0594C21.1484 22.4906 21.7906 22.6172 22.3531 22.3828C22.9156 22.1484 23.2812 21.6047 23.2812 20.9953V14.0812C24.1531 13.6687 24.7812 12.5578 24.7812 11.25C24.7812 9.94217 24.1531 8.83123 23.2812 8.41874V1.49998ZM20.2812 5.0953V11.25V17.4047C17.525 14.8969 13.9297 13.5 10.1891 13.5H9.78125V8.99998H10.1891C13.9297 8.99998 17.525 7.60311 20.2812 5.0953Z" fill="#1E40AF"/>
</svg>
