<svg width="25" height="22" viewBox="0 0 25 22" fill="none" xmlns="http://www.w3.org/2000/svg">
<path d="M4.89062 3.5C4.89062 1.84531 6.23594 0.5 7.89062 0.5H21.3906C23.0453 0.5 24.3906 1.84531 24.3906 3.5V18.5C24.3906 20.1547 23.0453 21.5 21.3906 21.5H4.14062C2.06875 21.5 0.390625 19.8219 0.390625 17.75V5C0.390625 4.17031 1.06094 3.5 1.89062 3.5C2.72031 3.5 3.39062 4.17031 3.39062 5V17.75C3.39062 18.1625 3.72813 18.5 4.14062 18.5C4.55312 18.5 4.89062 18.1625 4.89062 17.75V3.5ZM7.89062 4.625V8.375C7.89062 8.99844 8.39219 9.5 9.01562 9.5H14.2656C14.8891 9.5 15.3906 8.99844 15.3906 8.375V4.625C15.3906 4.00156 14.8891 3.5 14.2656 3.5H9.01562C8.39219 3.5 7.89062 4.00156 7.89062 4.625ZM17.6406 4.25C17.6406 4.6625 17.9781 5 18.3906 5H20.6406C21.0531 5 21.3906 4.6625 21.3906 4.25C21.3906 3.8375 21.0531 3.5 20.6406 3.5H18.3906C17.9781 3.5 17.6406 3.8375 17.6406 4.25ZM17.6406 8.75C17.6406 9.1625 17.9781 9.5 18.3906 9.5H20.6406C21.0531 9.5 21.3906 9.1625 21.3906 8.75C21.3906 8.3375 21.0531 8 20.6406 8H18.3906C17.9781 8 17.6406 8.3375 17.6406 8.75ZM7.89062 13.25C7.89062 13.6625 8.22813 14 8.64062 14H20.6406C21.0531 14 21.3906 13.6625 21.3906 13.25C21.3906 12.8375 21.0531 12.5 20.6406 12.5H8.64062C8.22813 12.5 7.89062 12.8375 7.89062 13.25ZM7.89062 17.75C7.89062 18.1625 8.22813 18.5 8.64062 18.5H20.6406C21.0531 18.5 21.3906 18.1625 21.3906 17.75C21.3906 17.3375 21.0531 17 20.6406 17H8.64062C8.22813 17 7.89062 17.3375 7.89062 17.75Z" fill="#1E40AF"/>
</svg>
