<svg width="28" height="22" viewBox="0 0 28 22" fill="none" xmlns="http://www.w3.org/2000/svg">
<path d="M3.48438 0.5C1.82969 0.5 0.484375 1.84531 0.484375 3.5V18.5C0.484375 20.1547 1.82969 21.5 3.48438 21.5H24.4844C26.1391 21.5 27.4844 20.1547 27.4844 18.5V3.5C27.4844 1.84531 26.1391 0.5 24.4844 0.5H3.48438ZM11.2422 7.12344L14.6172 13.8734C14.8938 14.4312 14.6687 15.1062 14.1156 15.3828C13.5625 15.6594 12.8828 15.4344 12.6063 14.8812L12.3531 14.375H8.11563L7.8625 14.8766C7.58594 15.4344 6.91094 15.6594 6.35312 15.3781C5.79531 15.0969 5.57031 14.4266 5.85156 13.8688L9.22656 7.11875C9.41875 6.73906 9.80781 6.49531 10.2344 6.49531C10.6609 6.49531 11.05 6.73438 11.2422 7.11875V7.12344ZM10.2344 10.1422L9.24063 12.125H11.2234L10.2344 10.1422ZM18.8594 11C18.561 11 18.2749 11.1185 18.0639 11.3295C17.8529 11.5405 17.7344 11.8266 17.7344 12.125C17.7344 12.4234 17.8529 12.7095 18.0639 12.9205C18.2749 13.1315 18.561 13.25 18.8594 13.25C19.1577 13.25 19.4439 13.1315 19.6549 12.9205C19.8658 12.7095 19.9844 12.4234 19.9844 12.125C19.9844 11.8266 19.8658 11.5405 19.6549 11.3295C19.4439 11.1185 19.1577 11 18.8594 11ZM19.9844 8.94219V7.625C19.9844 7.00156 20.4859 6.5 21.1094 6.5C21.7328 6.5 22.2344 7.00156 22.2344 7.625V12.125V14.375C22.2344 14.9984 21.7328 15.5 21.1094 15.5C20.8 15.5 20.5187 15.3734 20.3125 15.1719C19.8719 15.3828 19.3797 15.5 18.8594 15.5C16.9937 15.5 15.4844 13.9906 15.4844 12.125C15.4844 10.2594 16.9937 8.75 18.8594 8.75C19.2531 8.75 19.6328 8.81563 19.9844 8.94219Z" fill="#1E40AF"/>
</svg>
