<svg width="14" height="14" viewBox="0 0 14 14" fill="none" xmlns="http://www.w3.org/2000/svg">
<path d="M7.00315 3.40635C5.01565 3.40635 3.41252 5.00947 3.41252 6.99697C3.41252 8.98447 5.01565 10.5876 7.00315 10.5876C8.99065 10.5876 10.5938 8.98447 10.5938 6.99697C10.5938 5.00947 8.99065 3.40635 7.00315 3.40635ZM7.00315 9.33135C5.71877 9.33135 4.66877 8.28447 4.66877 6.99697C4.66877 5.70947 5.71565 4.6626 7.00315 4.6626C8.29065 4.6626 9.33752 5.70947 9.33752 6.99697C9.33752 8.28447 8.28752 9.33135 7.00315 9.33135ZM11.5781 3.25947C11.5781 3.7251 11.2031 4.09697 10.7407 4.09697C10.275 4.09697 9.90315 3.72197 9.90315 3.25947C9.90315 2.79697 10.2782 2.42197 10.7407 2.42197C11.2031 2.42197 11.5781 2.79697 11.5781 3.25947ZM13.9563 4.10947C13.9031 2.9876 13.6469 1.99385 12.825 1.1751C12.0063 0.356348 11.0125 0.100098 9.89065 0.0438477C8.7344 -0.0217773 5.26877 -0.0217773 4.11252 0.0438477C2.99377 0.0969727 2.00002 0.353223 1.17815 1.17197C0.356274 1.99072 0.103149 2.98447 0.0468994 4.10635C-0.0187256 5.2626 -0.0187256 8.72822 0.0468994 9.88447C0.100024 11.0063 0.356274 12.0001 1.17815 12.8188C2.00002 13.6376 2.99065 13.8938 4.11252 13.9501C5.26877 14.0157 8.7344 14.0157 9.89065 13.9501C11.0125 13.897 12.0063 13.6407 12.825 12.8188C13.6438 12.0001 13.9 11.0063 13.9563 9.88447C14.0219 8.72822 14.0219 5.26572 13.9563 4.10947ZM12.4625 11.1251C12.2188 11.7376 11.7469 12.2095 11.1313 12.4563C10.2094 12.822 8.0219 12.7376 7.00315 12.7376C5.9844 12.7376 3.79377 12.8188 2.87502 12.4563C2.26252 12.2126 1.79065 11.7407 1.54377 11.1251C1.17815 10.2032 1.26252 8.01572 1.26252 6.99697C1.26252 5.97822 1.18127 3.7876 1.54377 2.86885C1.78752 2.25635 2.2594 1.78447 2.87502 1.5376C3.7969 1.17197 5.9844 1.25635 7.00315 1.25635C8.0219 1.25635 10.2125 1.1751 11.1313 1.5376C11.7438 1.78135 12.2156 2.25322 12.4625 2.86885C12.8281 3.79072 12.7438 5.97822 12.7438 6.99697C12.7438 8.01572 12.8281 10.2063 12.4625 11.1251Z" fill="#9CA3AF"/>
</svg>
