<svg width="25" height="24" viewBox="0 0 25 24" fill="none" xmlns="http://www.w3.org/2000/svg">
<path d="M19.6875 9.75C19.6875 11.9016 18.9891 13.8891 17.8125 15.5016L23.7469 21.4406C24.3328 22.0266 24.3328 22.9781 23.7469 23.5641C23.1609 24.15 22.2094 24.15 21.6234 23.5641L15.6891 17.625C14.0766 18.8062 12.0891 19.5 9.9375 19.5C4.55156 19.5 0.1875 15.1359 0.1875 9.75C0.1875 4.36406 4.55156 0 9.9375 0C15.3234 0 19.6875 4.36406 19.6875 9.75ZM9.9375 16.5C10.8239 16.5 11.7017 16.3254 12.5206 15.9862C13.3396 15.647 14.0837 15.1498 14.7105 14.523C15.3373 13.8962 15.8345 13.1521 16.1737 12.3331C16.5129 11.5142 16.6875 10.6364 16.6875 9.75C16.6875 8.86358 16.5129 7.98583 16.1737 7.16689C15.8345 6.34794 15.3373 5.60382 14.7105 4.97703C14.0837 4.35023 13.3396 3.85303 12.5206 3.51381C11.7017 3.17459 10.8239 3 9.9375 3C9.05108 3 8.17333 3.17459 7.35439 3.51381C6.53544 3.85303 5.79132 4.35023 5.16453 4.97703C4.53773 5.60382 4.04053 6.34794 3.70131 7.16689C3.36209 7.98583 3.1875 8.86358 3.1875 9.75C3.1875 10.6364 3.36209 11.5142 3.70131 12.3331C4.04053 13.1521 4.53773 13.8962 5.16453 14.523C5.79132 15.1498 6.53544 15.647 7.35439 15.9862C8.17333 16.3254 9.05108 16.5 9.9375 16.5Z" fill="#1E40AF"/>
</svg>
