<svg width="22" height="22" viewBox="0 0 22 22" fill="none" xmlns="http://www.w3.org/2000/svg">
<path d="M16.5938 9.5C19.0781 9.5 21.0938 7.48438 21.0938 5C21.0938 2.51562 19.0781 0.5 16.5938 0.5C14.1094 0.5 12.0938 2.51562 12.0938 5C12.0938 5.1875 12.1031 5.375 12.1266 5.55781L7.71563 7.76094C6.90938 6.97812 5.80781 6.5 4.59375 6.5C2.10938 6.5 0.09375 8.51562 0.09375 11C0.09375 13.4844 2.10938 15.5 4.59375 15.5C5.80781 15.5 6.90938 15.0219 7.71563 14.2391L12.1266 16.4422C12.1031 16.625 12.0938 16.8078 12.0938 17C12.0938 19.4844 14.1094 21.5 16.5938 21.5C19.0781 21.5 21.0938 19.4844 21.0938 17C21.0938 14.5156 19.0781 12.5 16.5938 12.5C15.3797 12.5 14.2781 12.9781 13.4719 13.7609L9.06094 11.5578C9.08438 11.375 9.09375 11.1922 9.09375 11C9.09375 10.8078 9.08438 10.625 9.06094 10.4422L13.4719 8.23906C14.2781 9.02188 15.3797 9.5 16.5938 9.5Z" fill="#1E40AF"/>
</svg>
